<svg viewBox="0 0 128 128" xmlns="http://www.w3.org/2000/svg" role="img" aria-label="Street Sprint thumbnail">
  <defs>
    <linearGradient id="bg" x1="0" y1="0" x2="0" y2="1">
      <stop offset="0%" stop-color="#122038"/>
      <stop offset="65%" stop-color="#28314f"/>
      <stop offset="100%" stop-color="#191513"/>
    </linearGradient>
  </defs>
  <rect width="128" height="128" rx="16" fill="url(#bg)"/>
  <rect x="0" y="76" width="128" height="36" fill="#1e1d21"/>
  <rect x="0" y="92" width="128" height="22" fill="#29282d"/>
  <rect x="10" y="92" width="18" height="4" rx="2" fill="#f6e7a5"/>
  <rect x="40" y="92" width="18" height="4" rx="2" fill="#f6e7a5"/>
  <rect x="70" y="92" width="18" height="4" rx="2" fill="#f6e7a5"/>
  <rect x="100" y="92" width="18" height="4" rx="2" fill="#f6e7a5"/>
  <rect x="20" y="64" width="44" height="18" rx="8" fill="#ff9a2f" stroke="#ffd7a0" stroke-width="3"/>
  <rect x="28" y="58" width="18" height="10" rx="4" fill="#cfe9ff"/>
  <circle cx="30" cy="84" r="7" fill="#0e1218" stroke="#d7d7d7" stroke-width="2"/>
  <circle cx="54" cy="84" r="7" fill="#0e1218" stroke="#d7d7d7" stroke-width="2"/>
  <rect x="62" y="48" width="40" height="16" rx="8" fill="#ff4e57" stroke="#ffc3c7" stroke-width="3"/>
  <rect x="70" y="42" width="16" height="9" rx="4" fill="#cfe9ff"/>
  <circle cx="72" cy="66" r="6" fill="#0e1218" stroke="#d7d7d7" stroke-width="2"/>
  <circle cx="94" cy="66" r="6" fill="#0e1218" stroke="#d7d7d7" stroke-width="2"/>
  <path d="M106 34 L118 28" stroke="#8ae3ff" stroke-width="4" stroke-linecap="round"/>
  <path d="M106 42 L122 40" stroke="#8ae3ff" stroke-width="4" stroke-linecap="round" opacity="0.75"/>
</svg>