<svg width="960" height="600" viewBox="0 0 960 600" fill="none" xmlns="http://www.w3.org/2000/svg">
  <rect width="960" height="600" fill="#1A0D07"/>
  <rect width="960" height="600" fill="url(#paint0_radial)"/>
  <path d="M0 330C106 283 192 263 281 274C390 288 455 350 556 354C678 359 786 277 960 248V600H0V330Z" fill="#5B2F1A"/>
  <path d="M0 392C132 346 226 334 334 353C448 373 520 430 648 428C753 427 842 381 960 341V600H0V392Z" fill="#B67A43"/>
  <rect x="457" y="206" width="46" height="298" rx="8" fill="#7D5231"/>
  <rect x="470" y="216" width="20" height="282" rx="6" fill="#F0DEBF"/>
  <path d="M428 246L530 258" stroke="#8D623C" stroke-width="10" stroke-linecap="round"/>
  <path d="M438 290L547 306" stroke="#8D623C" stroke-width="8" stroke-linecap="round"/>
  <path d="M448 334L564 352" stroke="#8D623C" stroke-width="6" stroke-linecap="round"/>
  <circle cx="708" cy="116" r="56" fill="#FFF0D2" fill-opacity="0.32"/>
  <circle cx="296" cy="328" r="98" fill="#D5874B"/>
  <circle cx="296" cy="328" r="56" fill="#FFF1D8" fill-opacity="0.18"/>
  <circle cx="696" cy="236" r="34" fill="#FFF1D8" fill-opacity="0.2"/>
  <circle cx="696" cy="236" r="10" fill="#FFF4C4"/>
  <path d="M287 316L696 236" stroke="#FCE9C3" stroke-opacity="0.45" stroke-width="6" stroke-linecap="round"/>
  <path d="M86 117L121 131L86 146V117Z" fill="#8A1F1F"/>
  <rect x="74" y="109" width="12" height="80" fill="#8A1F1F"/>
  <path d="M170 125L205 139L170 154V125Z" fill="#1E4B8D"/>
  <rect x="158" y="117" width="12" height="80" fill="#1E4B8D"/>
  <path d="M254 117L289 131L254 146V117Z" fill="#8A1F1F"/>
  <rect x="242" y="109" width="12" height="80" fill="#8A1F1F"/>
  <path d="M338 125L373 139L338 154V125Z" fill="#1E4B8D"/>
  <rect x="326" y="117" width="12" height="80" fill="#1E4B8D"/>
  <defs>
    <radialGradient id="paint0_radial" cx="0" cy="0" r="1" gradientUnits="userSpaceOnUse" gradientTransform="translate(480 66) rotate(90) scale(534 772.285)">
      <stop stop-color="#F6C98F" stop-opacity="0.92"/>
      <stop offset="1" stop-color="#1A0D07" stop-opacity="0"/>
    </radialGradient>
  </defs>
</svg>