<svg viewBox="0 0 128 128" xmlns="http://www.w3.org/2000/svg" role="img" aria-label="Coffee Chaos thumbnail">
  <defs>
    <linearGradient id="bg" x1="0" y1="0" x2="1" y2="1">
      <stop offset="0%" stop-color="#2b130c" />
      <stop offset="100%" stop-color="#6d371d" />
    </linearGradient>
    <linearGradient id="cup" x1="0" y1="0" x2="0" y2="1">
      <stop offset="0%" stop-color="#fff5dc" />
      <stop offset="100%" stop-color="#f5dcb8" />
    </linearGradient>
  </defs>
  <rect width="128" height="128" rx="16" ry="16" fill="url(#bg)" />
  <rect x="18" y="24" width="92" height="20" rx="8" fill="#d18f4c" opacity="0.9" />
  <rect x="24" y="44" width="80" height="14" rx="6" fill="#402117" opacity="0.95" />
  <rect x="34" y="54" width="60" height="38" rx="10" fill="url(#cup)" stroke="#3d1f15" stroke-width="4" />
  <path d="M96 60c9 0 14 6 14 14s-5 14-14 14" fill="none" stroke="#f5dcb8" stroke-width="8" stroke-linecap="round" />
  <rect x="38" y="58" width="52" height="18" rx="7" fill="#5b2a1a" />
  <circle cx="48" cy="84" r="4" fill="#f0d3ab" />
  <circle cx="64" cy="82" r="4" fill="#f0d3ab" />
  <circle cx="80" cy="84" r="4" fill="#f0d3ab" />
  <path d="M48 18c0-8 7-11 7-17" fill="none" stroke="#f5e8d2" stroke-width="4" stroke-linecap="round" opacity="0.8" />
  <path d="M66 18c0-8 7-11 7-17" fill="none" stroke="#f5e8d2" stroke-width="4" stroke-linecap="round" opacity="0.8" />
</svg>
