<svg width="960" height="600" viewBox="0 0 960 600" fill="none" xmlns="http://www.w3.org/2000/svg">
  <rect width="960" height="600" fill="#090511"/>
  <rect width="960" height="600" fill="url(#paint0_radial)"/>
  <rect x="86" y="176" width="788" height="262" rx="18" fill="#1B2037"/>
  <rect x="114" y="204" width="732" height="206" rx="12" fill="#243054"/>
  <line x1="96" y1="236" x2="864" y2="236" stroke="#FF375F" stroke-width="8" stroke-linecap="round"/>
  <line x1="96" y1="286" x2="864" y2="286" stroke="#F3F4F6" stroke-width="8" stroke-linecap="round"/>
  <line x1="96" y1="336" x2="864" y2="336" stroke="#56C2FF" stroke-width="8" stroke-linecap="round"/>
  <rect x="108" y="188" width="18" height="242" rx="7" fill="#E7ECFF"/>
  <rect x="834" y="188" width="18" height="242" rx="7" fill="#E7ECFF"/>
  <ellipse cx="244" cy="468" rx="94" ry="24" fill="#F7F0DD" fill-opacity="0.14"/>
  <circle cx="278" cy="462" r="36" fill="#E11D48"/>
  <circle cx="390" cy="454" r="42" fill="#E11D48"/>
  <circle cx="266" cy="448" r="12" fill="white" fill-opacity="0.18"/>
  <circle cx="378" cy="438" r="13" fill="white" fill-opacity="0.18"/>
  <ellipse cx="604" cy="425" rx="88" ry="18" fill="black" fill-opacity="0.22"/>
  <rect x="528" y="146" width="154" height="222" rx="48" fill="#F4B6A6"/>
  <rect x="550" y="170" width="110" height="170" rx="42" fill="#E49283"/>
  <circle cx="564" cy="258" r="16" fill="#FFDD57" fill-opacity="0.95"/>
  <defs>
    <radialGradient id="paint0_radial" cx="0" cy="0" r="1" gradientUnits="userSpaceOnUse" gradientTransform="translate(480 84) rotate(90) scale(516 752.796)">
      <stop stop-color="#1F2347" stop-opacity="0.95"/>
      <stop offset="1" stop-color="#090511" stop-opacity="0"/>
    </radialGradient>
  </defs>
</svg>